<svg width="140" height="45" viewBox="0 0 140 45" fill="none" xmlns="http://www.w3.org/2000/svg">
<path d="M30.2949 28.9065V8.71113e-06H20.7281L17.5009 28.9065C17.5009 32.7442 16.7547 35.4058 13.5402 35.4058C11.4738 35.4058 9.98138 33.8583 9.46477 31.5681L0 26.8019C1.49242 32.8061 7.16873 45 13.9994 45C25.0778 45 30.2949 35.8391 30.2949 28.9065Z" fill="#FFC700"/>
<path d="M59.1017 13.5557C61.4709 10.7965 62.1843 0 62.1843 0H36.6728L32.3529 43.8239H44.6451V26.8019H50.2258L54.212 19.773H42.0536V13.5557C42.0536 13.5557 54.5784 18.8236 59.1017 13.5557Z" fill="#FFC700"/>
<path d="M89.432 43.8239V28.8446C89.432 28.8446 76.7113 33.5977 70.9539 28.9065C61.5949 21.2805 84.5069 0 84.5069 0H66.1705L54.212 43.8239H89.432Z" fill="#FFC700"/>
<path d="M106.829 43.8239L103.918 0H87.6958C87.6958 0 92.3555 6.40302 93.2764 19.773C94.1974 33.143 94.0451 43.8239 94.0451 43.8239H106.829Z" fill="#FFC700"/>
<path d="M140 13.4938C140 3.4663 124.542 0 115.644 0H109.176V21.912V43.8239H118.991L123.124 31.5681C131.619 31.5681 140 23.6451 140 13.4938ZM130.184 13.5557C130.184 17.7029 126.798 18.8789 123.124 18.8789H118.991V8.54195H123.296C126.798 8.54195 130.184 9.34662 130.184 13.5557Z" fill="#FFC700"/>
</svg>
