<svg width="120" height="47" viewBox="0 0 120 47" fill="none" xmlns="http://www.w3.org/2000/svg">
<path d="M26.56 28.288V11.512H20.368V28.324C20.368 30.556 19.9 32.104 17.884 32.104C16.588 32.104 15.652 31.204 15.328 29.872L9.892 31.708C10.828 35.2 13.888 37.684 18.172 37.684C25.12 37.684 26.56 32.32 26.56 28.288ZM48.4587 16.768V11.512H31.6827V37H37.7667V27.1H47.6307V22.024H37.7667V16.768H48.4587ZM68.4809 37V31.636H58.6169V11.512H52.4249V37H68.4809ZM77.5661 37V11.512H71.3741V37H77.5661ZM102.167 19.36C102.167 13.528 97.775 11.512 92.195 11.512H82.835V37H88.991V27.388H92.051C97.379 27.388 102.167 25.264 102.167 19.36ZM96.011 19.396C96.011 21.808 93.887 22.492 91.583 22.492H88.991V16.48H91.691C93.887 16.48 96.011 16.948 96.011 19.396Z" fill="white"/>
</svg>
